<svg viewBox="0 0 1440 1360" fill="none" xmlns="http://www.w3.org/2000/svg" preserveAspectRatio="none">
<path fill-rule="evenodd" clip-rule="evenodd" d="M0 259.841L61.0453 223.005C119.83 182.075 241.92 104.309 361.75 104.309C481.58 104.309 603.67 182.075 723.5 223.005C843.33 259.841 965.42 259.841 1085.25 235.284C1205.08 206.633 1327.17 157.517 1385.95 128.866L1447 104.309V575H1385.95C1327.17 575 1205.08 575 1085.25 575C965.42 575 843.33 575 723.5 575C603.67 575 481.58 575 361.75 575C241.92 575 119.83 575 61.0453 575H0V259.841Z" fill="url(#paint1_linear)"/>
<path fill-rule="evenodd" clip-rule="evenodd" d="M0 798.61L61.0453 834.195C119.83 869.779 241.92 937.39 361.75 855.545C481.58 777.26 603.67 549.519 723.5 528.169C843.33 503.26 965.42 684.74 1085.25 709.649C1205.08 731 1327.17 595.779 1385.95 528.169L1447 457V1005H1385.95C1327.17 1005 1205.08 1005 1085.25 1005C965.42 1005 843.33 1005 723.5 1005C603.67 1005 481.58 1005 361.75 1005C241.92 1005 119.83 1005 61.0453 1005H0V798.61Z" fill="url(#paint2_linear)"/>
<defs>
<linearGradient id="paint0_linear" x1="723.5" y1="0" x2="723.5" y2="370" gradientUnits="userSpaceOnUse">
<stop stop-color="#0099FF"/>
<stop offset="1" stop-color="#0572BA"/>
</linearGradient>
<linearGradient id="paint1_linear" x1="723.5" y1="104.309" x2="723.5" y2="575" gradientUnits="userSpaceOnUse">
<stop stop-color="#354047"/>
<stop offset="1" stop-color="#202D35"/>
</linearGradient>
<linearGradient id="paint2_linear" x1="723.5" y1="457" x2="723.5" y2="1005" gradientUnits="userSpaceOnUse">
<stop stop-color="#7C6ED2"/>
<stop offset="1" stop-color="#6154AE"/>
</linearGradient>
</defs>
</svg>
