<svg viewBox="0 0 1440 1360" fill="none" xmlns="http://www.w3.org/2000/svg" preserveAspectRatio="none">
<g clip-path="url(#clip0)" filter="url(#filter0_d)">
<rect width="1440" height="1024" transform="translate(30 22)" fill="url(#paint0_linear)"/>
<path fill-rule="evenodd" clip-rule="evenodd" d="M30 190.94L91.0453 161.14C149.83 131.341 271.92 74.0335 391.75 51.1106C511.58 30.48 633.67 44.2337 753.5 67.1566C873.33 87.7872 995.42 117.587 1115.25 124.464C1235.08 131.341 1357.17 117.587 1415.95 110.71L1477 103.833V411H1415.95C1357.17 411 1235.08 411 1115.25 411C995.42 411 873.33 411 753.5 411C633.67 411 511.58 411 391.75 411C271.92 411 149.83 411 91.0453 411H30V190.94Z" fill="url(#paint1_linear)"/>
<path fill-rule="evenodd" clip-rule="evenodd" d="M30 300.841L91.0453 264.005C149.83 223.075 271.92 145.309 391.75 145.309C511.58 145.309 633.67 223.075 753.5 264.005C873.33 300.841 995.42 300.841 1115.25 276.284C1235.08 247.633 1357.17 198.517 1415.95 169.866L1477 145.309V616H1415.95C1357.17 616 1235.08 616 1115.25 616C995.42 616 873.33 616 753.5 616C633.67 616 511.58 616 391.75 616C271.92 616 149.83 616 91.0453 616H30V300.841Z" fill="url(#paint2_linear)"/>
<path fill-rule="evenodd" clip-rule="evenodd" d="M30 839.61L91.0453 875.195C149.83 910.779 271.92 978.39 391.75 896.545C511.58 818.26 633.67 590.519 753.5 569.169C873.33 544.26 995.42 725.74 1115.25 750.649C1235.08 772 1357.17 636.779 1415.95 569.169L1477 498V1046H1415.95C1357.17 1046 1235.08 1046 1115.25 1046C995.42 1046 873.33 1046 753.5 1046C633.67 1046 511.58 1046 391.75 1046C271.92 1046 149.83 1046 91.0453 1046H30V839.61Z" fill="url(#paint3_linear)"/>
</g>
<defs>
<filter id="filter0_d" x="0" y="0" width="1500" height="1084" filterUnits="userSpaceOnUse" color-interpolation-filters="sRGB">
<feFlood flood-opacity="0" result="BackgroundImageFix"/>
<feColorMatrix in="SourceAlpha" type="matrix" values="0 0 0 0 0 0 0 0 0 0 0 0 0 0 0 0 0 0 127 0"/>
<feOffset dy="8"/>
<feGaussianBlur stdDeviation="15"/>
<feColorMatrix type="matrix" values="0 0 0 0 0 0 0 0 0 0 0 0 0 0 0 0 0 0 0.25 0"/>
<feBlend mode="normal" in2="BackgroundImageFix" result="effect1_dropShadow"/>
<feBlend mode="normal" in="SourceGraphic" in2="effect1_dropShadow" result="shape"/>
</filter>
<linearGradient id="paint0_linear" x1="720" y1="0" x2="720" y2="1024" gradientUnits="userSpaceOnUse">
<stop stop-color="#BB94E1"/>
<stop offset="1" stop-color="#0851BE"/>
</linearGradient>
<linearGradient id="paint1_linear" x1="753.5" y1="41" x2="753.5" y2="411" gradientUnits="userSpaceOnUse">
<stop stop-color="#0099FF"/>
<stop offset="1" stop-color="#0572BA"/>
</linearGradient>
<linearGradient id="paint2_linear" x1="753.5" y1="145.309" x2="753.5" y2="616" gradientUnits="userSpaceOnUse">
<stop stop-color="#354047"/>
<stop offset="1" stop-color="#202D35"/>
</linearGradient>
<linearGradient id="paint3_linear" x1="753.5" y1="498" x2="753.5" y2="1046" gradientUnits="userSpaceOnUse">
<stop stop-color="#7C6ED2"/>
<stop offset="1" stop-color="#6154AE"/>
</linearGradient>
<clipPath id="clip0">
<rect width="1440" height="1024" fill="white" transform="translate(30 22)"/>
</clipPath>
</defs>
</svg>
